<svg class="icon" style="width: 1em;height: 1em;vertical-align: middle;fill: currentColor;overflow: hidden;" viewBox="0 0 1024 1024" version="1.1" xmlns="http://www.w3.org/2000/svg"><path d="M224.0512 159.9488v799.9488c0 17.7152 14.336 31.9488 31.9488 31.9488h512c17.7152 0 31.9488-14.336 31.9488-31.9488V159.9488H224.0512z" fill="#F0EEE2" /><path d="M256 896h512v64H256z" fill="#BBAA9C" /><path d="M320 911.9744h-96.0512c-8.8064 0.2048-15.7696 7.5776-15.5648 16.384 0.2048 8.4992 7.0656 15.36 15.5648 15.5648h96.0512c8.8064 0.2048 16.1792-6.7584 16.384-15.5648s-6.7584-16.1792-15.5648-16.384h-0.8192zM783.9744 896h-64c-8.8064 0-15.9744 7.168-15.9744 15.9744s7.168 15.9744 15.9744 15.9744h64c8.8064 0 15.9744-7.168 15.9744-15.9744s-7.0656-15.9744-15.9744-15.9744z m-112.0256-96.0512h-96.0512c-8.8064 0-15.9744 7.168-15.9744 15.9744s7.168 15.9744 15.9744 15.9744h96.0512c8.8064 0 15.9744-7.168 15.9744-15.9744s-7.0656-15.9744-15.9744-15.9744z m48.0256-303.9232H768c8.8064 0.2048 16.1792-6.7584 16.384-15.5648s-6.7584-16.1792-15.5648-16.384H719.9744c-8.8064 0.2048-15.7696 7.5776-15.5648 16.384 0.2048 8.4992 7.0656 15.36 15.5648 15.5648zM512 448h-64c-8.8064 0-15.9744 7.168-15.9744 15.9744s7.168 15.9744 15.9744 15.9744H512c8.8064 0 15.9744-7.168 15.9744-15.9744s-7.168-15.9744-15.9744-15.9744zM240.0256 384h64c8.8064 0 15.9744-7.168 15.9744-15.9744s-7.168-15.9744-15.9744-15.9744h-64c-8.8064 0-15.9744 7.168-15.9744 15.9744s7.0656 15.9744 15.9744 15.9744z m207.9744-128c8.8064 0 15.9744-7.168 15.9744-15.9744s-7.168-15.9744-15.9744-15.9744h-15.9744c-8.8064 0-15.9744 7.168-15.9744 15.9744s7.168 15.9744 15.9744 15.9744h15.9744z m-128 415.9488h-15.9744c-8.8064 0-15.9744 7.168-15.9744 15.9744s7.168 15.9744 15.9744 15.9744h15.9744c8.8064 0 15.9744-7.168 15.9744-15.9744s-7.168-15.9744-15.9744-15.9744z" fill="#D8D5BA" /><path d="M640 783.9744c8.8064 0 15.9744-7.168 15.9744-15.9744V287.9488c0-8.8064-7.168-15.9744-15.9744-15.9744s-15.9744 7.168-15.9744 15.9744V768c0 8.8064 7.168 15.9744 15.9744 15.9744z m-256 0c8.8064 0 15.9744-7.168 15.9744-15.9744V287.9488c0-8.8064-7.168-15.9744-15.9744-15.9744s-15.9744 7.168-15.9744 15.9744V768c0 8.8064 7.168 15.9744 15.9744 15.9744zM896 128H671.9488V64c0-35.328-28.672-64-64-64H415.9488c-35.328 0-64 28.672-64 64V128H128c-17.7152 0-31.9488 14.336-31.9488 31.9488s14.336 31.9488 31.9488 31.9488h64v768c0 35.328 28.672 64 64 64h512c35.328 0 64-28.672 64-64v-768H896c17.7152 0 31.9488-14.336 31.9488-31.9488S913.7152 128 896 128zM415.9488 64h192V128H415.9488V64z m352.0512 896H256V896h512v64z m0-95.9488H256V192h512v672.0512z m-256-80.0768c8.8064 0 15.9744-7.168 15.9744-15.9744V287.9488c0-8.8064-7.168-15.9744-15.9744-15.9744s-15.9744 7.168-15.9744 15.9744V768c0 8.8064 7.168 15.9744 15.9744 15.9744z" fill="#5F4E56" /></svg>