<svg class="icon" style="width: 1em;height: 1em;vertical-align: middle;fill: currentColor;overflow: hidden;" viewBox="0 0 1024 1024" version="1.1" xmlns="http://www.w3.org/2000/svg"><path d="M199.799797 130.00529v763.98942H618.775178v-117.713123h117.713123V130.00529z" fill="#FFE0B2" /><path d="M618.775178 893.99471l58.752391-58.752391 58.960732-58.960732H618.775178zM240.009766 252.718616h456.268566v-18.125737h-456.268566zM240.009766 316.679552h456.268566v-18.125737h-456.268566zM240.009766 380.640488h456.268566v-18.334079h-456.268566zM240.009766 444.393082h456.268566v-18.125737h-456.268566zM240.009766 508.354018h456.268566v-18.125737h-456.268566z" fill="#FFB74D" /><path d="M754.405697 824.825229l69.794506-69.794507L581.273652 512.104171l-69.794507 69.794507z" fill="#0277BD" /><path d="M714.195727 784.823601l70.002849-70.002848-12.708851-12.500509-69.794506 69.794507z" fill="#424242" /><path d="M581.273652 512.104171l-69.794507 69.794507-12.083825-58.752391 23.125941-23.125941z" fill="#FFEF9D" /><path d="M522.521261 500.020346l-23.125941 23.125941-6.041912-29.167854z" fill="#2E3031" /><path d="M824.200203 755.030722l-40.209969-40.001627-34.793082 34.793082 40.001627 40.209969zM771.489725 702.320244L581.273652 512.104171l-35.001424 35.001424 190.216073 190.216073z" fill="#039BE5" /><path d="M783.990234 715.029095L748.98881 750.030519l35.001424-35.001424z m-12.500509-12.708851l-35.001424 35.001424 35.001424-35.001424z" fill="#F05B55" /><path d="M783.990234 715.029095l-12.500509-12.708851-35.001424 35.001424 12.708851 12.500509z" fill="#616161" /><path d="M518.771109 503.97884l-7.916989 7.708647z" fill="#2E2F2E" /><path d="M493.56175 494.186775h-0.208342z" fill="#ABB1B0" /><path d="M522.521261 500.020346l-3.750152 3.958494z" fill="#BCB17B" /><path d="M522.521261 500.020346l-29.167853-5.833571h0.208342l17.29237 17.500712 7.916989-7.708647z" fill="#292A2B" /></svg>