<?xml version="1.0" standalone="no"?><!DOCTYPE svg PUBLIC "-//W3C//DTD SVG 1.1//EN" "http://www.w3.org/Graphics/SVG/1.1/DTD/svg11.dtd"><svg t="1684475305352" class="icon" viewBox="0 0 1024 1024" version="1.1" xmlns="http://www.w3.org/2000/svg" p-id="3666" xmlns:xlink="http://www.w3.org/1999/xlink" width="128" height="128"><path d="M844 480v482H180V480l332-240z" fill="#FEA832" p-id="3667"></path><path d="M844 480v482H512V240z" fill="#FE9923" p-id="3668"></path><path d="M90 330m-30 0a30 30 0 1 0 60 0 30 30 0 1 0-60 0Z" fill="#CCEFFF" p-id="3669"></path><path d="M210 210m-30 0a30 30 0 1 0 60 0 30 30 0 1 0-60 0Z" fill="#CCEFFF" p-id="3670"></path><path d="M330 90m-30 0a30 30 0 1 0 60 0 30 30 0 1 0-60 0Z" fill="#CCEFFF" p-id="3671"></path><path d="M90 150m-30 0a30 30 0 1 0 60 0 30 30 0 1 0-60 0Z" fill="#CCEFFF" p-id="3672"></path><path d="M934 330m-30 0a30 30 0 1 0 60 0 30 30 0 1 0-60 0Z" fill="#ACE3FC" p-id="3673"></path><path d="M814 210m-30 0a30 30 0 1 0 60 0 30 30 0 1 0-60 0Z" fill="#ACE3FC" p-id="3674"></path><path d="M694 90m-30 0a30 30 0 1 0 60 0 30 30 0 1 0-60 0Z" fill="#ACE3FC" p-id="3675"></path><path d="M542 30c0 16.798-13.198 30-30 30s-30-13.202-30-30c0-16.802 13.198-30 30-30s30 13.198 30 30z" fill="#CCEFFF" p-id="3676"></path><path d="M934 150m-30 0a30 30 0 1 0 60 0 30 30 0 1 0-60 0Z" fill="#ACE3FC" p-id="3677"></path><path d="M604 480h-184c-16.802 0-30 13.198-30 30v150c0 16.798 13.198 30 30 30h184c16.802 0 30-13.202 30-30v-150c0-16.802-13.198-30-30-30z" fill="#FEDB41" p-id="3678"></path><path d="M634 510v150c0 16.798-13.198 30-30 30h-92V480h92c16.802 0 30 13.198 30 30z" fill="#FCBF29" p-id="3679"></path><path d="M950.202 518.4c-21.602 25.8-59.4 28.798-84.602 7.796L512 258 158.4 526.198c-25.202 21.002-63 18.002-84.602-7.796-20.998-25.202-18-63.002 7.8-84.602l392-300c10.8-9.002 24.604-13.8 38.402-13.8 13.798 0 27.602 4.798 38.4 13.798l392 300c25.8 21.6 28.8 59.4 7.802 84.602z" fill="#C85F03" p-id="3680"></path><path d="M950.202 518.4c-21.602 25.8-59.4 28.798-84.602 7.796L512 258V120c13.798 0 27.602 4.798 38.4 13.798l392 300c25.8 21.6 28.8 59.4 7.802 84.602z" fill="#994C0F" p-id="3681"></path><path d="M1024 858.6V994c0 16.798-13.198 30-30 30H30c-16.802 0-30-13.202-30-30v-109c0-20.402 20.402-35.402 39.598-28.202C110.402 882.598 200.402 896.4 270 896.4c83.4 0 168.202-19.802 242-56.4s158.6-56.4 242-56.4c76.202 0 179.4 16.198 252.602 47.398C1017.4 835.8 1024 846.6 1024 858.6z" fill="#CCEFFF" p-id="3682"></path><path d="M1024 858.6V994c0 16.798-13.198 30-30 30H512v-184c73.798-36.6 158.6-56.4 242-56.4 76.202 0 179.4 16.198 252.602 47.398C1017.4 835.8 1024 846.6 1024 858.6z" fill="#ACE3FC" p-id="3683"></path></svg>